<?xml version="1.0" encoding="UTF-8"?>
<!DOCTYPE svg PUBLIC "-//W3C//DTD SVG 1.1//EN" "http://www.w3.org/Graphics/SVG/1.1/DTD/svg11.dtd">
<svg xmlns="http://www.w3.org/2000/svg" version="1.1" width="1024px" height="534px" style="shape-rendering:geometricPrecision; text-rendering:geometricPrecision; image-rendering:optimizeQuality; fill-rule:evenodd; clip-rule:evenodd" xmlns:xlink="http://www.w3.org/1999/xlink">
<g><path style="opacity:0.999" fill="#030303" d="M 242.5,-0.5 C 265.833,-0.5 289.167,-0.5 312.5,-0.5C 310.156,38.8414 307.99,78.1748 306,117.5C 320.94,78.1769 335.773,38.8436 350.5,-0.5C 372.5,-0.5 394.5,-0.5 416.5,-0.5C 416.579,2.27065 416.079,4.93731 415,7.5C 381,97.5 347,187.5 313,277.5C 289.241,278.494 265.408,278.828 241.5,278.5C 244.039,239.505 246.206,200.505 248,161.5C 233.762,200.302 219.262,238.968 204.5,277.5C 182.327,277.831 160.327,277.497 138.5,276.5C 172.388,183.83 207.055,91.4966 242.5,-0.5 Z"/></g>
<g><path style="opacity:0.999" fill="#030303" d="M 424.5,-0.5 C 446.5,-0.5 468.5,-0.5 490.5,-0.5C 490.611,0.117425 490.944,0.617425 491.5,1C 456.548,92.684 421.882,184.517 387.5,276.5C 376.407,277.156 365.241,277.49 354,277.5C 342.812,277.499 331.979,276.832 321.5,275.5C 355.427,183.391 389.76,91.3905 424.5,-0.5 Z"/></g>
<g><path style="opacity:0.999" fill="#020202" d="M 501.5,-0.5 C 523.833,-0.5 546.167,-0.5 568.5,-0.5C 559.062,25.6589 549.562,51.6589 540,77.5C 561.747,51.6535 583.247,25.6535 604.5,-0.5C 671.5,-0.5 738.5,-0.5 805.5,-0.5C 800.233,15.6341 794.566,31.6341 788.5,47.5C 766.157,47.167 743.823,47.5003 721.5,48.5C 714.688,66.9401 707.688,85.2734 700.5,103.5C 699.957,103.56 699.624,103.893 699.5,104.5C 720.489,105.5 741.489,105.833 762.5,105.5C 756.854,122.952 750.52,140.119 743.5,157C 722.26,157.173 701.094,157.673 680,158.5C 672.025,180.095 663.858,201.595 655.5,223C 680.831,223.5 706.164,223.667 731.5,223.5C 729.914,229.926 727.914,236.259 725.5,242.5C 726.167,242.833 726.833,243.167 727.5,243.5C 821.872,218.157 916.205,192.657 1010.5,167C 1014.75,165.805 1019.08,165.305 1023.5,165.5C 1023.5,166.833 1023.5,168.167 1023.5,169.5C 1015.33,174.451 1006.66,178.451 997.5,181.5C 995.62,181.229 994.287,181.896 993.5,183.5C 750.663,289.075 507.329,393.908 263.5,498C 233.451,511.127 202.451,521.461 170.5,529C 161.683,530.467 153.016,531.967 144.5,533.5C 132.167,533.5 119.833,533.5 107.5,533.5C 72.2589,529.296 42.4256,514.296 18,488.5C 8.02542,475.724 1.85875,461.39 -0.5,445.5C -0.5,435.167 -0.5,424.833 -0.5,414.5C 3.75293,388.521 11.5863,363.521 23,339.5C 39.2207,306.168 58.3874,274.835 80.5,245.5C 83.6046,242.725 85.9379,239.392 87.5,235.5C 99.0173,219.804 111.017,204.471 123.5,189.5C 124.496,189.586 125.329,189.252 126,188.5C 126.483,189.448 126.649,190.448 126.5,191.5C 117.175,212.313 110.341,233.98 106,256.5C 97.4839,323.619 126.317,363.453 192.5,376C 214.136,378.361 235.469,376.695 256.5,371C 369.776,340.181 483.11,309.681 596.5,279.5C 597.167,279.5 597.5,279.167 597.5,278.5C 600.167,278.167 600.167,277.833 597.5,277.5C 568.5,277.5 539.5,277.5 510.5,277.5C 509.372,240.5 508.205,203.5 507,166.5C 492.817,203.526 478.651,240.526 464.5,277.5C 442.327,277.831 420.327,277.497 398.5,276.5C 432.235,183.964 466.568,91.6307 501.5,-0.5 Z M 667.5,10.5 C 668.043,10.56 668.376,10.8933 668.5,11.5C 638,92.5 607.5,173.5 577,254.5C 574.949,207.84 573.616,161.174 573,114.5C 605.104,80.2362 636.604,45.5696 667.5,10.5 Z"/></g>
<g><path style="opacity:0.435" fill="#292929" d="M 700.5,103.5 C 721.736,104.156 742.403,104.822 762.5,105.5C 741.489,105.833 720.489,105.5 699.5,104.5C 699.624,103.893 699.957,103.56 700.5,103.5 Z"/></g>
<g><path style="opacity:0.004" fill="#6f6f6f" d="M 997.5,181.5 C 996.486,182.674 995.153,183.34 993.5,183.5C 994.287,181.896 995.62,181.229 997.5,181.5 Z"/></g>
<g><path style="opacity:0.765" fill="#3b3b3b" d="M 126.5,191.5 C 126.649,190.448 126.483,189.448 126,188.5C 125.329,189.252 124.496,189.586 123.5,189.5C 132.381,178.715 133.381,179.381 126.5,191.5 Z"/></g>
<g><path style="opacity:0.808" fill="#353535" d="M 87.5,235.5 C 85.9379,239.392 83.6046,242.725 80.5,245.5C 82.0621,241.608 84.3954,238.275 87.5,235.5 Z"/></g>
<g><path style="opacity:0.063" fill="#676767" d="M 138.5,276.5 C 160.327,277.497 182.327,277.831 204.5,277.5C 182.33,278.828 159.996,278.828 137.5,277.5C 137.624,276.893 137.957,276.56 138.5,276.5 Z"/></g>
<g><path style="opacity:0.062" fill="#646464" d="M 321.5,275.5 C 331.979,276.832 342.812,277.499 354,277.5C 365.241,277.49 376.407,277.156 387.5,276.5C 365.525,278.489 343.192,279.156 320.5,278.5C 320.263,277.209 320.596,276.209 321.5,275.5 Z"/></g>
<g><path style="opacity:0.063" fill="#656565" d="M 398.5,276.5 C 420.327,277.497 442.327,277.831 464.5,277.5C 442.33,278.828 419.996,278.828 397.5,277.5C 397.624,276.893 397.957,276.56 398.5,276.5 Z"/></g>
<g><path style="opacity:0.014" fill="#ababab" d="M 510.5,277.5 C 539.5,277.5 568.5,277.5 597.5,277.5C 597.5,277.833 597.5,278.167 597.5,278.5C 597.5,279.167 597.167,279.5 596.5,279.5C 567.833,278.833 539.167,278.167 510.5,277.5 Z"/></g>
</svg>
